<?xml version="1.0" encoding="utf-8"?>
<!-- Generator: Adobe Illustrator 24.3.0, SVG Export Plug-In . SVG Version: 6.00 Build 0)  -->
<svg version="1.1" id="Layer_1" xmlns="http://www.w3.org/2000/svg" xmlns:xlink="http://www.w3.org/1999/xlink" x="0px" y="0px"
	 viewBox="0 0 50 50" style="enable-background:new 0 0 50 50;" xml:space="preserve">
<style type="text/css">
	.st0{opacity:0.8;fill:#FFFFFF;}
</style>
<path class="st0" d="M35.5,0h-21C5.4,0,0,5.4,0,14.5v20.9C0,44.6,5.4,50,14.5,50h20.9C44.6,50,50,44.6,50,35.5v-21
	C50,5.4,44.6,0,35.5,0z M35,26.9h-8.1V35c0,1-0.9,1.9-1.9,1.9c-1,0-1.9-0.8-1.9-1.9v-8.1H15c-1,0-1.9-0.9-1.9-1.9s0.9-1.9,1.9-1.9
	h8.1V15c0-1,0.9-1.9,1.9-1.9c1,0,1.9,0.9,1.9,1.9v8.1H35c1,0,1.9,0.9,1.9,1.9S36,26.9,35,26.9z"/>
</svg>
