<svg id="Layer_1" data-name="Layer 1" xmlns="http://www.w3.org/2000/svg" viewBox="0 0 50 50"><defs><style>.cls-1{fill:#53e1da;}</style></defs><path class="cls-1" d="M49.29,33.13c-1.38-3.41-5.64-5.38-11-4.11-5,1.19-6.3-1.39-6.48-1.82,9.91-.77,13.4-5.55,14.94-7.51s3.44-7.78,0-14a11,11,0,0,0-13.59-5c-3.41,1.37-5.38,5.64-4.1,11,1.18,5-1.4,6.29-1.83,6.47-.77-9.9-5.55-13.39-7.51-14.93s-7.78-3.44-14,0a11,11,0,0,0-5,13.59c1.38,3.41,5.64,5.38,11,4.1,5-1.18,6.3,1.4,6.48,1.82-9.91.78-13.4,5.56-14.94,7.52s-3.44,7.78,0,14a11,11,0,0,0,13.59,5c3.41-1.37,5.38-5.63,4.1-11-1.18-5,1.4-6.3,1.83-6.48.77,9.91,5.55,13.4,7.51,14.94s7.78,3.44,14,0A11,11,0,0,0,49.29,33.13ZM25,28.15A3.15,3.15,0,1,1,28.15,25,3.15,3.15,0,0,1,25,28.15Z"/></svg>