<?xml version="1.0" encoding="utf-8"?>
<!-- Generator: Adobe Illustrator 24.3.0, SVG Export Plug-In . SVG Version: 6.00 Build 0)  -->
<svg version="1.1" id="Layer_1" xmlns="http://www.w3.org/2000/svg" xmlns:xlink="http://www.w3.org/1999/xlink" x="0px" y="0px"
	 viewBox="0 0 50 50" style="enable-background:new 0 0 50 50;" xml:space="preserve">
<style type="text/css">
	.st0{opacity:0.8;fill:#FFFFFF;}
</style>
<path class="st0" d="M3.9,29.4l-2.6,1.4c-1.3,0.7-1.7,2.2-1,3.4l3.9,6.4c0.7,1.2,2.3,1.6,3.6,0.9l2.7-1.5c1.6-0.9,3.6-0.9,5.2,0
	l0.1,0c1.6,0.9,2.6,2.5,2.6,4.3v3c0,1.4,1.2,2.5,2.6,2.5H29c1.5,0,2.6-1.1,2.6-2.5v-3c0-1.8,1-3.4,2.6-4.3l0.1,0
	c1.6-0.9,3.6-0.9,5.2,0l2.7,1.5c1.3,0.7,2.9,0.3,3.6-0.9l3.9-6.4c0.7-1.2,0.3-2.7-1-3.4c0,0,0,0,0,0L46,29.4
	c-1.6-0.9-2.6-2.5-2.6-4.3V25c0-1.8,1-3.4,2.6-4.3l2.6-1.4c1.3-0.7,1.7-2.2,1-3.4l-3.9-6.4c-0.7-1.2-2.3-1.6-3.6-0.9l-2.7,1.5
	c-1.6,0.9-3.6,0.9-5.2,0l0,0c-1.6-0.9-2.6-2.5-2.6-4.3v-3c0-1.4-1.2-2.5-2.6-2.5H21c-1.5,0-2.6,1.1-2.6,2.5v3.2c0,1.7-0.9,3.2-2.4,4
	L15.6,10c-1.5,0.8-3.4,0.8-4.9,0L7.9,8.4C6.6,7.7,5,8.1,4.3,9.3l-3.9,6.4c-0.7,1.2-0.3,2.7,1,3.4l2.6,1.4c1.6,0.9,2.6,2.5,2.6,4.3
	V25C6.6,26.8,5.6,28.5,3.9,29.4z M25,17.5c4.4,0,7.9,3.4,7.9,7.5s-3.5,7.5-7.9,7.5s-7.9-3.4-7.9-7.5S20.6,17.5,25,17.5z"/>
</svg>
