<?xml version="1.0" encoding="utf-8"?>
<!-- Generator: Adobe Illustrator 24.3.0, SVG Export Plug-In . SVG Version: 6.00 Build 0)  -->
<svg version="1.1" id="Layer_1" xmlns="http://www.w3.org/2000/svg" xmlns:xlink="http://www.w3.org/1999/xlink" x="0px" y="0px"
	 viewBox="0 0 50 50" style="enable-background:new 0 0 50 50;" xml:space="preserve">
<style type="text/css">
	.st0{opacity:0.8;fill:#FFFFFF;}
</style>
<path class="st0" d="M50,21.8c0-2.7-1.4-5.1-3.5-6.5L29.8,1.6c-2.7-2.2-7-2.2-9.7,0L3.6,15.2C1.4,16.6,0,19,0,21.8
	C0,22,0,42.2,0,42.2C0,46.5,3.4,50,7.7,50h34.7c4.2,0,7.7-3.5,7.7-7.8 M18.5,38.2c-1.4,0-2.5-1.1-2.5-2.5c0-1.4,1.1-2.5,2.5-2.5
	c1.4,0,2.5,1.1,2.5,2.5C21,37.1,19.8,38.2,18.5,38.2z M26,37.6C26,37.6,26,37.6,26,37.6c-1.1,0-1.9-0.8-1.9-1.9
	c-0.1-3.4-2.3-5.7-5.7-5.8c-1,0-1.9-0.9-1.8-2c0-1,0.9-1.9,1.9-1.9c0,0,0,0,0.1,0c5.4,0.1,9.2,4,9.3,9.5C27.8,36.7,27,37.6,26,37.6z
	 M33.5,37.6c-1.1,0-1.9-0.8-1.9-1.9c0-1.7-0.3-3.3-0.8-4.8c-1.3-3.7-4-6.5-7.7-7.8c-1.5-0.5-3.1-0.8-4.7-0.8c-1,0-1.9-0.9-1.9-1.9
	c0-1,0.9-1.9,1.9-1.9h0c2.1,0,4.1,0.4,5.9,1c4.7,1.7,8.3,5.3,9.9,10.1c0.7,1.9,1,3.9,1,6C35.3,36.7,34.5,37.6,33.5,37.6z"/>
</svg>
